<?xml version="1.0" encoding="UTF-8"?>
<svg xmlns="http://www.w3.org/2000/svg" width="1280" height="720" viewBox="0 0 1280 720" role="img" aria-labelledby="title desc">
  <title id="title">Arbitrary polygons</title>
  <desc id="desc">Stars, hexagons, arrows, and custom point lists</desc>
  <defs>
    <filter id="shadow" x="-20%" y="-20%" width="140%" height="150%">
      <feDropShadow dx="0" dy="18" stdDeviation="20" flood-color="#17212f" flood-opacity="0.18"/>
    </filter>
    <linearGradient id="starGradient" x1="436" y1="182" x2="844" y2="590" gradientUnits="userSpaceOnUse">
      <stop offset="0" stop-color="#2e90fa"/>
      <stop offset="0.45" stop-color="#7a5af8"/>
      <stop offset="1" stop-color="#ee46bc"/>
    </linearGradient>
  </defs>
  <rect width="1280" height="720" fill="#f7f8fb"/>
  <rect x="54" y="54" width="1172" height="612" rx="34" fill="#ffffff" stroke="#dce2eb"/>
  <text x="96" y="124" fill="#17212f" font-family="Inter, ui-sans-serif, system-ui, sans-serif" font-size="44" font-weight="760">Arbitrary polygons</text>
  <text x="96" y="171" fill="#667085" font-family="Inter, ui-sans-serif, system-ui, sans-serif" font-size="24">Stars, hexagons, arrows, and custom point lists</text>
  
  <path d="M 687.11 294.88 H 687.11 C 689.77 301.25 691.1 304.44 693.3 306.8 C 694.88 308.49 696.76 309.85 698.85 310.83 C 701.78 312.2 705.22 312.48 712.1 313.04 H 712.1 C 746.1 315.81 763.1 317.19 771.19 323.6 C 781.9 332.1 786.48 346.2 782.81 359.37 C 780.04 369.31 767.1 380.42 741.22 402.65 H 741.22 C 735.98 407.14 733.36 409.39 731.8 412.22 C 730.68 414.24 729.96 416.45 729.68 418.74 C 729.28 421.95 730.08 425.31 731.67 432.03 H 731.67 C 739.55 465.22 743.48 481.81 739.88 491.49 C 735.11 504.3 723.12 513.01 709.46 513.59 C 699.15 514.03 684.58 505.16 655.45 487.41 H 655.45 C 649.55 483.82 646.6 482.02 643.43 481.41 C 641.16 480.97 638.84 480.97 636.57 481.41 C 633.4 482.02 630.45 483.82 624.55 487.41 H 624.55 C 595.42 505.16 580.85 514.03 570.54 513.59 C 556.88 513.01 544.89 504.3 540.12 491.49 C 536.52 481.81 540.45 465.22 548.33 432.03 H 548.33 C 549.92 425.31 550.72 421.95 550.32 418.74 C 550.04 416.45 549.32 414.24 548.2 412.22 C 546.64 409.39 544.02 407.14 538.78 402.65 H 538.78 C 512.9 380.42 499.96 369.31 497.19 359.37 C 493.52 346.2 498.1 332.1 508.81 323.6 C 516.9 317.19 533.9 315.81 567.9 313.04 H 567.9 C 574.78 312.48 578.22 312.2 581.15 310.83 C 583.24 309.85 585.12 308.49 586.7 306.8 C 588.9 304.44 590.23 301.25 592.89 294.88 H 592.89 C 606.03 263.4 612.6 247.66 621.2 241.95 C 632.59 234.39 647.41 234.39 658.8 241.95 C 667.4 247.66 673.97 263.4 687.11 294.88 Z" fill="url(#starGradient)" filter="url(#shadow)"/>
  <path d="M 687.11 294.88 H 687.11 C 689.77 301.25 691.1 304.44 693.3 306.8 C 694.88 308.49 696.76 309.85 698.85 310.83 C 701.78 312.2 705.22 312.48 712.1 313.04 H 712.1 C 746.1 315.81 763.1 317.19 771.19 323.6 C 781.9 332.1 786.48 346.2 782.81 359.37 C 780.04 369.31 767.1 380.42 741.22 402.65 H 741.22 C 735.98 407.14 733.36 409.39 731.8 412.22 C 730.68 414.24 729.96 416.45 729.68 418.74 C 729.28 421.95 730.08 425.31 731.67 432.03 H 731.67 C 739.55 465.22 743.48 481.81 739.88 491.49 C 735.11 504.3 723.12 513.01 709.46 513.59 C 699.15 514.03 684.58 505.16 655.45 487.41 H 655.45 C 649.55 483.82 646.6 482.02 643.43 481.41 C 641.16 480.97 638.84 480.97 636.57 481.41 C 633.4 482.02 630.45 483.82 624.55 487.41 H 624.55 C 595.42 505.16 580.85 514.03 570.54 513.59 C 556.88 513.01 544.89 504.3 540.12 491.49 C 536.52 481.81 540.45 465.22 548.33 432.03 H 548.33 C 549.92 425.31 550.72 421.95 550.32 418.74 C 550.04 416.45 549.32 414.24 548.2 412.22 C 546.64 409.39 544.02 407.14 538.78 402.65 H 538.78 C 512.9 380.42 499.96 369.31 497.19 359.37 C 493.52 346.2 498.1 332.1 508.81 323.6 C 516.9 317.19 533.9 315.81 567.9 313.04 H 567.9 C 574.78 312.48 578.22 312.2 581.15 310.83 C 583.24 309.85 585.12 308.49 586.7 306.8 C 588.9 304.44 590.23 301.25 592.89 294.88 H 592.89 C 606.03 263.4 612.6 247.66 621.2 241.95 C 632.59 234.39 647.41 234.39 658.8 241.95 C 667.4 247.66 673.97 263.4 687.11 294.88 Z" fill="none" stroke="#101828" stroke-opacity="0.14" stroke-width="4"/>
  <g fill="#1d2939" font-family="Inter, ui-sans-serif, system-ui, sans-serif" font-size="24" font-weight="700">
    <text x="104" y="518">10 points</text>
    <text x="1002" y="518">per-point radius</text>
  </g>
  <path d="M238 506 C360 462 416 428 492 386" fill="none" stroke="#667085" stroke-width="4" stroke-linecap="round"/>
  <path d="M997 498 C914 452 842 420 742 344" fill="none" stroke="#667085" stroke-width="4" stroke-linecap="round"/>

</svg>
