<?xml version="1.0" encoding="UTF-8"?>
<svg xmlns="http://www.w3.org/2000/svg" width="1280" height="720" viewBox="0 0 1280 720" role="img" aria-labelledby="title desc">
  <title id="title">Per-corner control</title>
  <desc id="desc">Each rectangle corner can carry its own radius</desc>
  <defs>
    <filter id="shadow" x="-20%" y="-20%" width="140%" height="150%">
      <feDropShadow dx="0" dy="18" stdDeviation="20" flood-color="#17212f" flood-opacity="0.16"/>
    </filter>
    <linearGradient id="shapeGradient" x1="340" y1="228" x2="940" y2="528" gradientUnits="userSpaceOnUse">
      <stop offset="0" stop-color="#eff8ff"/>
      <stop offset="0.52" stop-color="#f4f3ff"/>
      <stop offset="1" stop-color="#fff1f3"/>
    </linearGradient>
  </defs>
  <rect width="1280" height="720" fill="#f7f8fb"/>
  <rect x="54" y="54" width="1172" height="612" rx="34" fill="#ffffff" stroke="#dce2eb"/>
  <text x="96" y="124" fill="#17212f" font-family="Inter, ui-sans-serif, system-ui, sans-serif" font-size="44" font-weight="760">Per-corner control</text>
  <text x="96" y="171" fill="#667085" font-family="Inter, ui-sans-serif, system-ui, sans-serif" font-size="24">Each rectangle corner can carry its own radius</text>

  <rect x="340" y="228" width="600" height="300" fill="none" stroke="#d0d5dd" stroke-width="3" stroke-dasharray="12 12"/>
  <path d="M 381.28 228 H 754.24 C 827 228 863.38 228 889.87 244.81 C 903.29 253.33 914.67 264.71 923.19 278.13 C 940 304.62 940 341 940 413.76 V 417.92 C 940 461.04 940 482.59 930.04 498.29 C 924.99 506.25 918.25 512.99 910.29 518.04 C 894.59 528 873.04 528 829.92 528 L 340 528 V 269.28 C 340 253.11 340 245.03 343.74 239.14 C 345.63 236.16 348.16 233.63 351.14 231.74 C 357.03 228 365.11 228 381.28 228 Z" fill="url(#shapeGradient)" stroke="#344054" stroke-width="4" filter="url(#shadow)"/>
  <text x="640" y="374" text-anchor="middle" fill="#1d2939" font-family="Inter, ui-sans-serif, system-ui, sans-serif" font-size="28" font-weight="760">one path</text>
  <text x="640" y="412" text-anchor="middle" fill="#667085" font-family="Inter, ui-sans-serif, system-ui, sans-serif" font-size="22">four independent corners</text>

  <g fill="none" stroke-width="4" stroke-linecap="round" stroke-linejoin="round">
    <path d="M306 252 C326 252 326 228 340 228" stroke="#2e90fa"/>
    <path d="M974 252 C954 252 954 228 940 228" stroke="#f79009"/>
    <path d="M974 486 C954 486 954 528 940 528" stroke="#f04438"/>
    <path d="M306 486 C326 486 326 528 340 528" stroke="#12b76a"/>
  </g>

  <g>
    <circle cx="340" cy="228" r="12" fill="#2e90fa" stroke="#ffffff" stroke-width="5"/>
    <circle cx="940" cy="228" r="12" fill="#f79009" stroke="#ffffff" stroke-width="5"/>
    <circle cx="940" cy="528" r="12" fill="#f04438" stroke="#ffffff" stroke-width="5"/>
    <circle cx="340" cy="528" r="12" fill="#12b76a" stroke="#ffffff" stroke-width="5"/>
  </g>

  <g font-family="Inter, ui-sans-serif, system-ui, sans-serif">
    <g>
      <rect x="116" y="214" width="190" height="76" rx="14" fill="#ffffff" stroke="#b2ddff"/>
      <rect x="116" y="214" width="8" height="76" rx="4" fill="#2e90fa"/>
      <text x="142" y="249" fill="#175cd3" font-size="18" font-weight="760">topLeftRadius</text>
      <text x="142" y="274" fill="#1d2939" font-size="22" font-weight="760">24 px</text>
    </g>
    <g>
      <rect x="974" y="214" width="190" height="76" rx="14" fill="#ffffff" stroke="#fedf89"/>
      <rect x="974" y="214" width="8" height="76" rx="4" fill="#f79009"/>
      <text x="1000" y="249" fill="#b54708" font-size="18" font-weight="760">topRightRadius</text>
      <text x="1000" y="274" fill="#1d2939" font-size="22" font-weight="760">108 px</text>
    </g>
    <g>
      <rect x="974" y="448" width="190" height="76" rx="14" fill="#ffffff" stroke="#fecdca"/>
      <rect x="974" y="448" width="8" height="76" rx="4" fill="#f04438"/>
      <text x="1000" y="483" fill="#b42318" font-size="18" font-weight="760">bottomRightRadius</text>
      <text x="1000" y="508" fill="#1d2939" font-size="22" font-weight="760">64 px</text>
    </g>
    <g>
      <rect x="116" y="448" width="190" height="76" rx="14" fill="#ffffff" stroke="#abefc6"/>
      <rect x="116" y="448" width="8" height="76" rx="4" fill="#12b76a"/>
      <text x="142" y="483" fill="#027a48" font-size="18" font-weight="760">bottomLeftRadius</text>
      <text x="142" y="508" fill="#1d2939" font-size="22" font-weight="760">0 px</text>
    </g>
  </g>
</svg>
