<?xml version="1.0" encoding="UTF-8"?>
<svg xmlns="http://www.w3.org/2000/svg" width="1280" height="720" viewBox="0 0 1280 720" role="img" aria-labelledby="title desc">
  <title id="title">CSS and image clipping</title>
  <desc id="desc">Use the same path string in SVG or CSS clip-path</desc>
  <defs>
    <filter id="shadow" x="-20%" y="-20%" width="140%" height="150%">
      <feDropShadow dx="0" dy="18" stdDeviation="20" flood-color="#17212f" flood-opacity="0.18"/>
    </filter>
    <linearGradient id="clipGradient" x1="238" y1="214" x2="1042" y2="570" gradientUnits="userSpaceOnUse">
      <stop offset="0" stop-color="#0ba5ec"/>
      <stop offset="0.48" stop-color="#12b76a"/>
      <stop offset="1" stop-color="#fdb022"/>
    </linearGradient>
  </defs>
  <rect width="1280" height="720" fill="#f7f8fb"/>
  <rect x="54" y="54" width="1172" height="612" rx="34" fill="#ffffff" stroke="#dce2eb"/>
  <text x="96" y="124" fill="#17212f" font-family="Inter, ui-sans-serif, system-ui, sans-serif" font-size="44" font-weight="760">CSS and image clipping</text>
  <text x="96" y="171" fill="#667085" font-family="Inter, ui-sans-serif, system-ui, sans-serif" font-size="24">Use the same path string in SVG or CSS clip-path</text>
  
  <clipPath id="squircleClip"><path d="M 387.52 214 H 892.48 C 953.87 214 984.57 214 1006.3 229.28 C 1014.24 234.85 1021.15 241.76 1026.72 249.7 C 1042 271.43 1042 302.13 1042 363.52 V 420.48 C 1042 481.87 1042 512.57 1026.72 534.3 C 1021.15 542.24 1014.24 549.15 1006.3 554.72 C 984.57 570 953.87 570 892.48 570 H 387.52 C 326.13 570 295.43 570 273.7 554.72 C 265.76 549.15 258.85 542.24 253.28 534.3 C 238 512.57 238 481.87 238 420.48 V 363.52 C 238 302.13 238 271.43 253.28 249.7 C 258.85 241.76 265.76 234.85 273.7 229.28 C 295.43 214 326.13 214 387.52 214 Z"/></clipPath>
  <g clip-path="url(#squircleClip)" filter="url(#shadow)">
    <rect x="238" y="214" width="804" height="356" fill="url(#clipGradient)"/>
    <circle cx="384" cy="346" r="122" fill="#ffffff" opacity="0.32"/>
    <circle cx="798" cy="308" r="158" fill="#101828" opacity="0.22"/>
    <path d="M238 570 C386 414 488 414 640 570 S914 726 1042 570 V720 H238 Z" fill="#ffffff" opacity="0.42"/>
    <path d="M238 498 C388 366 512 408 640 506 S894 636 1042 480 V570 H238 Z" fill="#1d2939" opacity="0.18"/>
  </g>
  <path d="M 387.52 214 H 892.48 C 953.87 214 984.57 214 1006.3 229.28 C 1014.24 234.85 1021.15 241.76 1026.72 249.7 C 1042 271.43 1042 302.13 1042 363.52 V 420.48 C 1042 481.87 1042 512.57 1026.72 534.3 C 1021.15 542.24 1014.24 549.15 1006.3 554.72 C 984.57 570 953.87 570 892.48 570 H 387.52 C 326.13 570 295.43 570 273.7 554.72 C 265.76 549.15 258.85 542.24 253.28 534.3 C 238 512.57 238 481.87 238 420.48 V 363.52 C 238 302.13 238 271.43 253.28 249.7 C 258.85 241.76 265.76 234.85 273.7 229.28 C 295.43 214 326.13 214 387.52 214 Z" fill="none" stroke="#101828" stroke-opacity="0.12" stroke-width="4"/>
  <rect x="410" y="598" width="460" height="42" rx="21" fill="#eef2f6"/>
  <text x="448" y="627" fill="#344054" font-family="ui-monospace, SFMono-Regular, Menlo, monospace" font-size="20">clip-path: path("M ... Z")</text>

</svg>
